<?xml version="1.0" encoding="UTF-8" standalone="no"?>
<!-- Created with Inkscape (http://www.inkscape.org/) -->

<svg
   xmlns:osb="http://www.openswatchbook.org/uri/2009/osb"
   xmlns:dc="http://purl.org/dc/elements/1.1/"
   xmlns:cc="http://creativecommons.org/ns#"
   xmlns:rdf="http://www.w3.org/1999/02/22-rdf-syntax-ns#"
   xmlns:svg="http://www.w3.org/2000/svg"
   xmlns="http://www.w3.org/2000/svg"
   xmlns:xlink="http://www.w3.org/1999/xlink"
   xmlns:sodipodi="http://sodipodi.sourceforge.net/DTD/sodipodi-0.dtd"
   xmlns:inkscape="http://www.inkscape.org/namespaces/inkscape"
   width="210mm"
   height="297mm"
   viewBox="0 0 210 297"
   version="1.1"
   id="svg7007"
   inkscape:version="0.92.4 (5da689c313, 2019-01-14)"
   sodipodi:docname="drawing barevna.svg">
  <defs
     id="defs7001">
    <linearGradient
       id="linearGradient7876"
       osb:paint="solid">
      <stop
         style="stop-color:#800080;stop-opacity:1;"
         offset="0"
         id="stop7874" />
    </linearGradient>
    <linearGradient
       inkscape:collect="always"
       id="linearGradient7804">
      <stop
         style="stop-color:#000000;stop-opacity:1;"
         offset="0"
         id="stop7800" />
      <stop
         style="stop-color:#000000;stop-opacity:0;"
         offset="1"
         id="stop7802" />
    </linearGradient>
    <linearGradient
       inkscape:collect="always"
       xlink:href="#linearGradient7804"
       id="linearGradient7806"
       x1="56.6172"
       y1="140.75305"
       x2="106.73726"
       y2="140.75305"
       gradientUnits="userSpaceOnUse" />
  </defs>
  <sodipodi:namedview
     id="base"
     pagecolor="#ffffff"
     bordercolor="#666666"
     borderopacity="1.0"
     inkscape:pageopacity="0.0"
     inkscape:pageshadow="2"
     inkscape:zoom="0.74897495"
     inkscape:cx="16.990178"
     inkscape:cy="701.83598"
     inkscape:document-units="mm"
     inkscape:current-layer="layer1"
     showgrid="false"
     inkscape:window-width="2048"
     inkscape:window-height="1089"
     inkscape:window-x="-8"
     inkscape:window-y="-8"
     inkscape:window-maximized="1" />
  <metadata
     id="metadata7004">
    <rdf:RDF>
      <cc:Work
         rdf:about="">
        <dc:format>image/svg+xml</dc:format>
        <dc:type
           rdf:resource="http://purl.org/dc/dcmitype/StillImage" />
        <dc:title></dc:title>
      </cc:Work>
    </rdf:RDF>
  </metadata>
  <g
     inkscape:label="Vrstva 1"
     inkscape:groupmode="layer"
     id="layer1">
    <path
       style="opacity:0.94;fill:#80003d;fill-opacity:1;stroke:url(#linearGradient7806);stroke-width:0.14553948;stroke-linecap:round;stroke-linejoin:round;stroke-miterlimit:4;stroke-dasharray:none;stroke-opacity:1;paint-order:stroke markers fill"
       id="path7706"
       d="m 106.66442,72.329383 c -0.23384,0.322989 -0.46777,0.647478 -0.70408,0.968662 -0.26187,0.382615 -0.56322,0.698907 -0.8353,1.064133 -0.28374,0.383976 -0.59397,0.720282 -0.88236,1.095691 -0.32828,0.404956 -0.67104,0.782492 -0.99187,1.200468 -0.33712,0.423099 -0.67923,0.839161 -1.00343,1.284318 -0.37304,0.482226 -0.73416,0.98451 -1.10185,1.475981 -0.42573,0.585911 -0.8541,1.169681 -1.265621,1.777886 -0.393584,0.55793 -0.7904,1.109846 -1.156875,1.707588 -0.361027,0.545489 -0.694013,1.129439 -1.046924,1.685952 -0.306337,0.502682 -0.606664,1.014445 -0.89965,1.534486 -0.35967,0.564261 -0.698177,1.156113 -1.03493,1.750294 -0.36867,0.6559 -0.733179,1.316109 -1.084676,1.992491 -0.310876,0.571133 -0.615651,1.150705 -0.901822,1.749744 -0.296987,0.600232 -0.554784,1.239801 -0.813408,1.87703 -0.245119,0.605107 -0.44027,1.250343 -0.630627,1.896154 -0.176094,0.601419 -0.353832,1.200194 -0.498923,1.819933 -0.151431,0.651683 -0.292769,1.308241 -0.427138,1.968068 -0.128837,0.69245 -0.256992,1.385418 -0.36956,2.084158 -0.104478,0.75319 -0.192824,1.51102 -0.289697,2.26648 -0.09863,0.7379 -0.164862,1.48359 -0.222709,2.23052 -0.05496,0.74135 -0.09584,1.48475 -0.128231,2.22895 -0.03288,0.77023 -0.05349,1.54134 -0.07465,2.31242 -0.01754,0.80852 -0.03166,1.61721 -0.04136,2.42601 -0.01009,0.81742 -0.01378,1.63502 -0.02595,2.45236 -0.0045,0.90916 -0.01396,1.81817 -0.02198,2.72729 -0.01059,1.04411 -0.0096,2.08835 -0.01244,3.13254 -2.48e-4,0.98171 0.0033,1.96341 0.006,2.94512 0.02165,0.86694 0.05487,1.73317 0.08436,2.5996 0.02545,0.93818 0.03929,1.87702 0.05208,2.81575 0.01077,0.97479 0.02365,1.94891 0.05676,2.9226 0.02735,0.9664 0.08548,1.92872 0.143429,2.89177 0.05261,1.06292 0.12682,2.12299 0.180146,3.18597 0.09712,1.31044 0.160274,2.6248 0.221113,3.93977 0.0513,1.3901 0.122298,2.77791 0.194625,4.16585 0.06721,1.21845 0.129493,2.43744 0.184791,3.65721 0.04481,1.10036 0.04608,2.20528 0.01862,3.30665 -0.04619,1.09009 -0.121575,2.17677 -0.178915,3.26563 -0.06269,1.05023 -0.152053,2.09588 -0.244646,3.141 -0.107706,1.12207 -0.28696,2.22624 -0.49141,3.31716 -0.219562,1.23024 -0.493854,2.43631 -0.780476,3.63506 -0.314098,1.34815 -0.686038,2.66166 -1.088996,3.95588 -0.469352,1.50285 -0.984173,2.97162 -1.527447,4.41813 -0.533198,1.43863 -1.101845,2.84733 -1.681042,4.24596 -0.552092,1.32586 0.599231,-1.27953 0,0 -0.582918,1.25489 -9.631839,13.54725 -10.33964,14.7326 0,0 -0.104798,3.99639 -0.584186,4.69634 -0.422805,0.62415 -4.421425,1.38216 -7.051995,3.0738 -2.136116,1.37368 -4.453677,3.29652 -6.627534,5.01906 -1.374323,1.08898 -4.05404,3.35933 -4.05404,3.35933 v 0 c 0.171361,-0.36496 0.08316,-0.1882 0.264211,-0.53079 0.280825,-0.62152 0.569166,-1.23609 0.881189,-1.8246 0.337521,-0.59782 0.650624,-1.22185 0.997145,-1.80867 0.338078,-0.59006 0.690571,-1.16125 1.037986,-1.73951 0.336568,-0.56197 0.69667,-1.09558 1.086035,-1.5773 0.396287,-0.5692 0.81263,-1.10819 1.2396,-1.62656 0.408526,-0.55543 0.835867,-1.08101 1.254827,-1.61926 0.431144,-0.59711 0.881102,-1.16483 1.310875,-1.76492 0.476159,-0.70116 0.969748,-1.37466 1.440773,-2.08381 0.574953,-0.90156 1.183489,-1.7567 1.72067,-2.7107 0.705398,-1.14542 1.408371,-2.29438 2.104954,-3.45139 0.689173,-1.1802 1.381875,-2.35576 2.05523,-3.55615 0.636183,-1.15976 1.246525,-2.35044 1.825494,-3.57452 0.598147,-1.25834 1.205248,-2.50874 1.752963,-3.8176 0.589502,-1.37049 1.164509,-2.75562 1.693079,-4.18009 0.541688,-1.40206 1.052455,-2.82854 1.501832,-4.30154 0.388485,-1.25185 0.747498,-2.52577 1.052894,-3.82786 0.279959,-1.1623 0.544425,-2.33372 0.762131,-3.52548 0.185037,-1.03253 0.360539,-2.07064 0.45905,-3.13057 0.09806,-1.01765 0.191938,-2.03572 0.252819,-3.06017 0.06008,-1.06493 0.130922,-2.12849 0.185141,-3.19407 0.01821,-1.05811 0.02182,-2.11854 -0.01799,-3.17563 -0.0414,-1.2115 -0.08713,-2.42275 -0.146321,-3.63266 -0.07061,-1.3899 -0.129778,-2.7804 -0.186171,-4.17169 -0.0671,-1.30893 -0.159198,-2.61403 -0.256952,-3.91865 -0.07098,-1.05977 -0.153733,-2.11786 -0.21175,-3.17949 -0.06123,-0.98027 -0.110008,-1.96152 -0.139511,-2.94514 -0.03829,-0.98795 -0.04547,-1.97652 -0.05879,-2.96579 -0.0177,-0.92783 -0.03776,-1.85552 -0.07055,-2.78251 -0.02618,-0.8901 -0.06346,-1.77962 -0.07514,-2.67048 0.0049,-0.98213 0.0111,-1.96428 0.01412,-2.94646 0.001,-1.04533 0.0058,-2.09065 0.0018,-3.13597 -0.0018,-0.91164 -0.0041,-1.8232 0.0037,-2.7348 -10e-4,-0.8218 0.009,-1.64362 0.01944,-2.46527 0.0111,-0.81621 0.02054,-1.63245 0.03954,-2.44837 0.01479,-0.78569 0.03612,-1.57126 0.06938,-2.35575 0.03298,-0.76861 0.06703,-1.5373 0.127979,-2.30242 0.06065,-0.78213 0.126266,-1.56435 0.223577,-2.33858 0.09932,-0.76909 0.19987,-1.5374 0.292272,-2.3084 0.101368,-0.73537 0.233446,-1.458839 0.362772,-2.184196 0.130282,-0.675225 0.265357,-1.349153 0.419097,-2.013337 0.138755,-0.662955 0.297435,-1.317336 0.511064,-1.936545 0.192569,-0.708891 0.404812,-1.407732 0.642834,-2.08559 0.257377,-0.676704 0.530678,-1.340245 0.810716,-1.996716 0.294088,-0.634909 0.596731,-1.2578 0.923485,-1.857038 0.376054,-0.64484 0.699776,-1.353329 1.086975,-1.985014 0.325822,-0.622426 0.667784,-1.226333 1.007595,-1.831932 0.3233,-0.491695 0.61535,-1.028333 0.917087,-1.548771 0.347307,-0.571289 0.706181,-1.128011 1.052923,-1.700363 0.389049,-0.593767 0.744317,-1.237395 1.169504,-1.778687 0.428785,-0.591933 0.844689,-1.206972 1.263858,-1.813576 0.361412,-0.500941 0.727905,-0.993277 1.080679,-1.506744 0.343852,-0.428276 0.662575,-0.899945 1.007114,-1.327251 0.333919,-0.388252 0.63563,-0.833514 0.974627,-1.213651 0.301328,-0.339587 0.577144,-0.726271 0.880074,-1.06335 0.27989,-0.335432 0.532646,-0.721579 0.828042,-1.0286 0.224086,-0.294018 0.438099,-0.602289 0.657919,-0.897361 l 9.870658,1.152462 z"
       inkscape:connector-curvature="0"
       sodipodi:nodetypes="cccccccccccccccccccccccccccccccccccccccccccccccsaccccccccccccccccccccccccccccccccccccccccccccccccccccccccccccc" />
    <path
       style="opacity:1;fill:#80003d;fill-opacity:0.94117647;stroke:none;stroke-width:0.1727595;stroke-linecap:round;stroke-linejoin:round;stroke-miterlimit:4;stroke-dasharray:none;stroke-opacity:1;paint-order:stroke markers fill"
       id="path7708"
       d="m 114.77746,141.32722 c 0.44628,0.41809 0.86864,0.86051 1.33514,1.25651 0.55626,0.47888 1.15544,0.89926 1.74578,1.33078 0.65089,0.46002 1.32764,0.87627 1.98472,1.32454 0.65075,0.39554 1.32007,0.76279 2.00943,1.07789 0.71405,0.33772 1.43614,0.67289 2.13216,1.05204 0.6584,0.32141 1.3343,0.59484 1.99231,0.91668 0.75603,0.3602 1.51133,0.7226 2.27567,1.06314 0.84469,0.46103 1.71827,0.85936 2.57523,1.29343 0.99345,0.54352 1.9778,1.1056 2.95655,1.67806 1.07476,0.59221 2.09997,1.27588 3.15038,1.9131 0.96816,0.57769 1.87545,1.25522 2.77324,1.94541 0.87997,0.60876 1.69878,1.30773 2.50529,2.01912 0.74145,0.67136 1.43168,1.39321 2.06059,2.18161 0.58849,0.74405 1.05498,1.57468 1.4667,2.43735 0.37199,0.79101 0.6554,1.62198 0.90428,2.4636 0.24955,0.77864 0.36351,1.58571 0.45284,2.39857 0.0768,0.76456 0.0567,1.53079 -0.006,2.29503 -0.0464,0.71004 -0.21965,1.39395 -0.43863,2.06336 -0.23867,0.68519 -0.64409,1.28183 -1.12429,1.80009 -0.59569,0.65118 -1.34744,1.08245 -2.1256,1.43863 -0.92166,0.4201 -1.88097,0.73903 -2.84638,1.02522 -1.03666,0.30038 -2.09488,0.50035 -3.15563,0.67682 -1.11189,0.18037 -2.23243,0.28901 -3.35308,0.38611 -1.16401,0.0975 -2.33039,0.15694 -3.49666,0.2139 -1.08268,0.0514 -2.16591,0.0879 -3.2492,0.1206 -1.0755,0.028 -2.1507,0.0439 -3.22553,0.0935 -1.19383,0.0881 -2.38069,0.2577 -3.57142,0.38349 -1.13918,0.12232 -2.26894,0.32004 -3.40275,0.48571 -1.08843,0.18104 -2.17292,0.3902 -3.25788,0.59379 -1.01997,0.21957 -2.03403,0.46076 -3.04168,0.73611 -0.97611,0.23958 -1.9382,0.53669 -2.90446,0.81627 -0.90919,0.33294 -1.81667,0.67069 -2.722,1.01526 -0.85421,0.33877 -1.69229,0.71717 -2.52552,1.10896 -0.75555,0.3611 -4.424017,-1.35904 -6.684398,-1.24948 -2.253441,0.10923 -5.828255,1.24181 -6.527822,1.88506 -0.511501,0.49563 -5.940314,2.30468 -6.419488,2.83514 v 0 0 c 0.487271,-0.56761 0.97633,-1.13556 1.524993,-1.63893 0.69592,-0.72241 1.450974,-1.37428 2.207453,-2.02454 0.681981,-0.56616 1.448521,-1.01326 2.217973,-1.43123 0.827248,-0.45733 1.684425,-0.85513 2.552175,-1.21876 0.896464,-0.40218 1.820372,-0.72399 2.736162,-1.07207 0.946549,-0.41853 1.955908,-0.63486 2.935705,-0.95092 1.02155,-0.24705 2.022353,-0.57832 3.054697,-0.77724 1.08364,-0.28301 2.1918,-0.41986 3.28132,-0.67518 1.13931,-0.20186 2.2869,-0.35615 3.42959,-0.53337 1.18372,-0.16706 2.37809,-0.24152 3.55768,-0.44608 1.07003,-0.12071 2.14344,-0.16369 3.21941,-0.16778 1.08895,-0.025 2.17785,-0.0534 3.26639,-0.0941 1.16475,-0.0451 2.32956,-0.0925 3.49296,-0.1683 1.10919,-0.0751 2.21839,-0.15856 3.32265,-0.29429 1.04961,-0.13511 2.09891,-0.2862 3.1326,-0.5252 0.94345,-0.21756 1.87323,-0.48709 2.78362,-0.82774 0.68673,-0.27365 1.40036,-0.49439 2.01533,-0.93282 0.40244,-0.3382 0.81341,-0.66487 1.07128,-1.14997 0.23897,-0.51398 0.39531,-1.07383 0.45187,-1.6438 0.0716,-0.65668 0.0693,-1.31864 0.0201,-1.9775 -0.0847,-0.7209 -0.21788,-1.43066 -0.44148,-2.11969 -0.23692,-0.75614 -0.50606,-1.5025 -0.87022,-2.20211 -0.40521,-0.74971 -0.87623,-1.45776 -1.43301,-2.09195 -0.63106,-0.69777 -1.3084,-1.34791 -2.01832,-1.95537 -0.80456,-0.67339 -1.63769,-1.30444 -2.47999,-1.92395 -0.89138,-0.64781 -1.80862,-1.2528 -2.74575,-1.82433 -1.02751,-0.65126 -2.07035,-1.27421 -3.13083,-1.86389 -0.99109,-0.55211 -1.98416,-1.10286 -3.00648,-1.58845 -0.86293,-0.41681 -1.71466,-0.86082 -2.58967,-1.24885 -0.77035,-0.36179 -1.54541,-0.71229 -2.31782,-1.06907 -0.6703,-0.29842 -1.3309,-0.6197 -1.98085,-0.96509 -0.72015,-0.33898 -1.4296,-0.7053 -2.14449,-1.05541 -0.6825,-0.38753 -1.36313,-0.77884 -2.0061,-1.23744 -0.68326,-0.43945 -1.34906,-0.91142 -2.00386,-1.39656 -0.6162,-0.46118 -1.21728,-0.94668 -1.78054,-1.47849 -0.4835,-0.4733 -0.96616,-0.95709 -1.374,-1.50525 -0.38181,-0.52707 -0.70089,-1.09599 -0.972939,-1.69455 -0.316531,-0.67948 -0.578973,-1.38362 -0.743578,-2.12259 -0.192877,-0.80524 -0.326171,-1.62446 -0.375431,-2.45448 -0.05319,-0.85083 -0.08744,-1.70294 -0.14394,-2.55361 -0.02511,-0.64658 -0.01219,-1.29526 -0.06713,-1.94009 3.333168,0.81386 6.799768,1.03474 9.684568,2.8328 2.63683,1.64353 6.09102,6.5547 6.425,6.93279 z"
       inkscape:connector-curvature="0"
       sodipodi:nodetypes="ccccccccccccccccccccccccccccccccccacccccccccccccccccccccccccccccccccccccccccccccac" />
    <path
       style="opacity:1;fill:#960096;fill-opacity:1;stroke:none;stroke-width:0.20722993;stroke-linecap:round;stroke-linejoin:round;stroke-miterlimit:4;stroke-dasharray:none;stroke-opacity:1;paint-order:stroke markers fill"
       id="path7710"
       d="m 57.30083,119.72595 c 0.712631,0.0109 1.425399,0.0121 2.138104,0.0122 0.96883,10e-4 1.93766,10e-4 2.906487,0.002 1.065603,5e-4 2.131204,0.001 3.196799,0.002 0.190888,2e-4 0.381779,4e-4 0.572665,5.7e-4 -5.244477,0.002 -10.488949,0.008 -15.733422,0.007 -0.196386,-8e-5 0.392726,-0.007 0.589028,-0.0137 0.588024,-0.0182 1.175661,-0.0494 1.763598,-0.0706 1.117022,-0.088 2.234413,-0.17569 3.350438,-0.27679 1.313556,-0.1381 2.605349,-0.41205 3.896131,-0.69337 1.473188,-0.34309 2.933972,-0.74125 4.406325,-1.08837 1.671409,-0.39512 3.330225,-0.84785 4.9889,-1.29793 1.850206,-0.47649 3.692551,-0.98376 5.524508,-1.53253 2.015449,-0.57937 4.000082,-1.26796 5.980707,-1.9654 1.789343,-0.62839 3.571121,-1.28093 5.348134,-1.94687 1.852706,-0.70953 3.674002,-1.50626 5.485197,-2.32467 1.81884,-0.83254 3.608253,-1.73276 5.387159,-2.655 1.687382,-0.86117 3.342682,-1.7905 4.979782,-2.75244 1.64945,-0.975 3.26501,-2.01035 4.86689,-3.06883 1.44191,-0.984289 2.8609,-2.00508 4.28743,-3.013723 1.21683,-0.87476 2.42508,-1.763019 3.62777,-2.659182 0.17339,-0.12742 0.347,-0.254865 0.52048,-0.382294 0,0 16.41923,1.653168 16.41923,1.653168 v 0 c -0.17944,0.135374 -0.35878,0.270748 -0.53815,0.406122 -1.24508,0.870153 -2.46336,1.782474 -3.69856,2.668077 -1.44065,1.019802 -2.89155,2.023302 -4.33324,3.041462 -1.59523,1.11227 -3.24453,2.13681 -4.89463,3.15605 -1.63531,1.01432 -3.30522,1.96222 -4.99292,2.87667 -1.80718,0.89256 -3.58621,1.84829 -5.40812,2.70835 -1.80272,0.86162 -3.63478,1.65042 -5.4705,2.4308 -1.7812,0.72568 -3.595662,1.35289 -5.401528,2.00658 -1.99561,0.6765 -3.972505,1.41475 -5.984544,2.03757 -1.816679,0.53569 -3.618496,1.1284 -5.453975,1.59222 -1.655876,0.42759 -3.305441,0.88287 -4.954114,1.33978 -1.460662,0.36027 -2.930982,0.67857 -4.377303,1.10157 -1.274067,0.32244 -2.55179,0.65109 -3.848949,0.85234 -1.116012,0.21397 -2.243958,0.27166 -3.372083,0.38495 -6.585084,0.7302 -13.278256,-0.17954 -19.864965,0.19869 -1.0739,0.001 -2.147792,0.001 -3.221693,0.002 -0.976794,10e-4 -1.953595,10e-4 -2.930398,0.002 -0.762409,0.001 -1.524861,0.001 -2.287211,0.0122 0,0 16.530543,-2.7532 16.530543,-2.7532 z"
       inkscape:connector-curvature="0" />
    <path
       style="opacity:1;fill:#800080;fill-opacity:1;stroke:none;stroke-width:0.16961773;stroke-linecap:round;stroke-linejoin:round;stroke-miterlimit:4;stroke-dasharray:none;stroke-opacity:1;paint-order:stroke markers fill"
       id="path7710-1"
       d="m 54.116771,38.339684 c -0.0099,0.535692 -0.01026,1.071488 -0.01092,1.607237 -0.001,0.728282 -0.001,1.456561 -0.0019,2.18484 -4.61e-4,0.801025 -0.001,1.602049 -0.0019,2.403069 -1.82e-4,0.143506 -3.62e-4,0.286987 -5.05e-4,0.430481 -0.0019,-3.942335 -0.0081,-7.884666 -0.006,-11.826994 7.6e-5,-0.147625 0.0067,0.295217 0.0121,0.442779 0.01631,0.442024 0.04408,0.883758 0.06289,1.325717 0.07839,0.839679 0.156575,1.679634 0.246686,2.518562 0.123088,0.987414 0.367243,1.95847 0.617949,2.928768 0.305768,1.10741 0.660628,2.205498 0.969982,3.312284 0.352144,1.256416 0.755619,2.503366 1.156753,3.750212 0.424659,1.390821 0.876747,2.775736 1.365819,4.152836 0.516342,1.515037 1.130037,3.006908 1.751604,4.495767 0.560044,1.345069 1.141598,2.684451 1.735102,4.02025 0.632342,1.392704 1.342417,2.761793 2.071804,4.123289 0.741972,1.367239 1.544271,2.712362 2.366194,4.049584 0.767493,1.268426 1.59573,2.512728 2.453034,3.743363 0.868937,1.239916 1.791673,2.454341 2.735016,3.658497 0.877216,1.083904 1.786969,2.150567 2.685897,3.22291 0.779605,0.914708 1.571241,1.822958 2.369921,2.727032 0.113557,0.130333 0.227144,0.260844 0.340713,0.391258 0,0 -1.47334,12.342523 -1.47334,12.342523 v 0 C 75.442833,94.209035 75.322186,94.074243 75.201537,93.939416 74.426036,93.003462 73.612955,92.087674 72.823684,91.15917 71.914814,90.076204 71.020476,88.985552 70.113062,87.901822 69.12179,86.702658 68.208686,85.462865 67.300323,84.222464 66.396339,82.993182 65.551543,81.737895 64.736565,80.469239 63.941093,79.110758 63.089326,77.773438 62.322826,76.403883 61.554928,75.04876 60.851935,73.671578 60.156437,72.291648 59.509702,70.952705 58.950711,69.58875 58.368133,68.231257 57.765209,66.73113 57.107269,65.24508 56.552198,63.73261 56.074781,62.366987 55.546546,61.012542 55.133177,59.63279 54.752098,58.388051 54.346343,57.148054 53.939128,55.908727 53.61805,54.810731 53.334376,53.705477 52.957381,52.618259 52.670019,51.660527 52.377125,50.700047 52.197768,49.72496 c -0.190693,-0.838922 -0.242101,-1.686809 -0.34309,-2.534835 -0.650764,-4.950082 0.160021,-9.981415 -0.177062,-14.932719 -10e-4,-0.807264 -0.0016,-1.614522 -0.0019,-2.421786 -0.001,-0.734268 -0.001,-1.468539 -0.0019,-2.202812 -0.001,-0.573111 -0.0016,-1.146257 -0.01092,-1.719323 0,0 2.453712,12.426199 2.453712,12.426199 z"
       inkscape:connector-curvature="0" />
    <path
       style="opacity:1;fill:#95661f;fill-opacity:1;stroke:none;stroke-width:0.17986141;stroke-linecap:round;stroke-linejoin:round;stroke-miterlimit:4;stroke-dasharray:none;stroke-opacity:1;paint-order:stroke markers fill"
       id="path7741"
       d="m 113.03021,42.400189 c 1.41528,0.55072 2.79621,1.183751 4.16468,1.822566 2.0936,1.01939 4.20806,2.005868 6.27893,3.061453 1.674,0.807281 3.28588,1.705382 4.84726,2.671995 1.26269,0.800795 2.3927,1.757107 3.40479,2.796418 0.832,0.881023 1.54015,1.849968 2.12639,2.871745 0.46012,0.832313 0.6969,1.714513 0.7688,2.631375 0.0517,0.77995 -0.0635,1.555626 -0.24595,2.315601 -0.20086,0.71345 -0.46621,1.409763 -0.77168,2.092514 -0.27713,0.593778 -0.61133,1.163103 -0.98797,1.711392 -0.37905,0.55955 -0.89452,1.004419 -1.50142,1.367567 -0.72165,0.395811 -1.5557,0.595271 -2.36544,0.806237 -0.97106,0.23217 -1.96883,0.360595 -2.96605,0.472099 -0.93989,0.100547 -1.8836,0.170938 -2.82794,0.232253 -0.69664,0.04448 -1.39435,0.07574 -2.09219,0.103384 0,0 -14.49476,-2.224442 -14.49476,-2.224442 v 0 c 0.70156,-0.0165 1.40304,-0.03593 2.1039,-0.06676 0.94946,-0.04279 1.89849,-0.09405 2.84526,-0.169036 0.97367,-0.07843 1.94703,-0.165396 2.91046,-0.313159 0.76825,-0.1246 1.50672,-0.333511 2.26556,-0.491015 0.53197,-0.176102 1.05822,-0.356358 1.43091,-0.754951 0.40812,-0.442715 0.72086,-0.943584 0.99172,-1.46108 0.33009,-0.590279 0.56617,-1.217562 0.76659,-1.851403 0.18189,-0.628676 0.29694,-1.274619 0.24978,-1.92677 -0.0643,-0.738257 -0.30464,-1.438005 -0.70321,-2.093844 -0.57398,-0.912256 -1.23185,-1.783541 -2.03919,-2.550671 -1.01194,-0.929921 -2.10564,-1.787128 -3.32363,-2.503426 -1.52907,-0.917193 -3.10869,-1.764659 -4.71378,-2.573368 -2.06395,-1.035226 -4.13496,-2.063887 -6.26404,-2.990828 -1.49266,-0.624287 -2.990749,-1.245371 -4.576121,-1.663319 0,0 14.718391,-1.322498 14.718391,-1.322498 z"
       inkscape:connector-curvature="0"
       inkscape:transform-center-x="-13.32625"
       inkscape:transform-center-y="-9.6659716" />
  </g>
</svg>
